<?xml version="1.0" encoding="UTF-8"?>
<svg xmlns="http://www.w3.org/2000/svg" xmlns:xlink="http://www.w3.org/1999/xlink" width="600px" height="400px" viewBox="0 0 600 400" version="1.1">
<defs>
<clipPath id="clip1">
  <path d="M 69 125 L 531 125 L 531 275 L 69 275 Z M 69 125 "/>
</clipPath>
<clipPath id="clip2">
  <path d="M 307.929688 173.125 C 307.664062 193.886719 326.429688 205.472656 340.566406 212.363281 C 355.09375 219.429688 359.96875 223.960938 359.914062 230.28125 C 359.804688 239.957031 348.328125 244.222656 337.589844 244.390625 C 318.851562 244.679688 307.957031 239.332031 299.296875 235.285156 L 292.546875 266.871094 C 301.234375 270.875 317.324219 274.367188 334.011719 274.519531 C 373.179688 274.519531 398.804688 255.1875 398.941406 225.210938 C 399.09375 187.164062 346.320312 185.058594 346.679688 168.054688 C 346.804688 162.898438 351.722656 157.394531 362.507812 155.996094 C 367.84375 155.289062 382.574219 154.75 399.273438 162.441406 L 405.832031 131.882812 C 396.851562 128.609375 385.304688 125.480469 370.933594 125.480469 C 334.066406 125.480469 308.136719 145.074219 307.929688 173.125 M 468.820312 128.113281 C 461.667969 128.113281 455.640625 132.285156 452.953125 138.6875 L 397.003906 272.273438 L 436.140625 272.273438 L 443.929688 250.75 L 491.757812 250.75 L 496.277344 272.273438 L 530.769531 272.273438 L 500.667969 128.113281 L 468.820312 128.113281 M 474.296875 167.054688 L 485.589844 221.191406 L 454.65625 221.191406 L 474.296875 167.054688 M 260.476562 128.113281 L 229.625 272.273438 L 266.921875 272.273438 L 297.757812 128.113281 L 260.476562 128.113281 M 205.300781 128.113281 L 166.480469 226.234375 L 150.78125 142.800781 C 148.9375 133.488281 141.660156 128.113281 133.582031 128.113281 L 70.121094 128.113281 L 69.230469 132.296875 C 82.261719 135.125 97.0625 139.683594 106.027344 144.5625 C 111.515625 147.542969 113.082031 150.148438 114.882812 157.230469 L 144.625 272.273438 L 184.042969 272.273438 L 244.46875 128.113281 L 205.300781 128.113281 "/>
</clipPath>
<linearGradient id="linear0" gradientUnits="userSpaceOnUse" x1="0" y1="0" x2="1" y2="0" gradientTransform="matrix(388.97812,-143.254845,143.254845,388.97812,111.040622,269.990483)">
<stop offset="0" style="stop-color:rgb(13.333333%,13.72549%,34.117647%);stop-opacity:1;"/>
<stop offset="1" style="stop-color:rgb(14.509804%,29.019608%,64.705882%);stop-opacity:1;"/>
</linearGradient>
</defs>
<g id="surface1">
<g clip-path="url(#clip1)" clip-rule="nonzero">
<g clip-path="url(#clip2)" clip-rule="nonzero">
<path style=" stroke:none;fill-rule:nonzero;fill:url(#linear0);" d="M 20.902344 143.277344 L 475.652344 -24.195312 L 579.109375 256.726562 L 124.359375 424.199219 "/>
</g>
</g>
</g>
</svg>
