<?xml version="1.0" encoding="UTF-8"?>
<svg xmlns="http://www.w3.org/2000/svg" xmlns:xlink="http://www.w3.org/1999/xlink" width="600px" height="400px" viewBox="0 0 600 400" version="1.1">
<g id="surface1">
<path style=" stroke:none;fill-rule:nonzero;fill:rgb(100%,40.000001%,0%);fill-opacity:1;" d="M 167.019531 66.667969 L 432.757812 66.667969 C 432.753906 155.480469 432.761719 244.292969 432.753906 333.105469 C 344.175781 333.113281 255.59375 333.105469 167.019531 333.109375 L 167.019531 66.667969 M 397.101562 259.386719 C 397.089844 259.953125 397.089844 260.519531 397.097656 261.085938 C 398.367188 261.078125 399.644531 261.082031 400.914062 261.082031 C 400.921875 264.617188 400.914062 268.152344 400.917969 271.691406 C 401.613281 271.683594 402.304688 271.683594 403 271.6875 C 403 268.152344 402.996094 264.617188 403.003906 261.082031 C 404.273438 261.082031 405.550781 261.078125 406.824219 261.082031 C 406.820312 260.519531 406.820312 259.957031 406.824219 259.390625 C 403.582031 259.386719 400.34375 259.398438 397.101562 259.386719 M 409.25 259.386719 C 409.242188 263.488281 409.242188 267.585938 409.25 271.6875 L 411.324219 271.6875 C 411.339844 268.328125 411.300781 264.972656 411.347656 261.613281 C 412.738281 264.941406 413.992188 268.324219 415.320312 271.679688 C 415.765625 271.679688 416.210938 271.679688 416.664062 271.679688 C 418 268.3125 419.277344 264.921875 420.652344 261.570312 C 420.675781 264.941406 420.65625 268.3125 420.664062 271.6875 C 421.351562 271.683594 422.042969 271.683594 422.734375 271.691406 C 422.761719 267.59375 422.738281 263.492188 422.746094 259.394531 C 421.691406 259.386719 420.640625 259.386719 419.589844 259.394531 C 418.417969 262.472656 417.222656 265.542969 416.035156 268.617188 C 414.839844 265.539062 413.621094 262.46875 412.425781 259.386719 C 411.367188 259.390625 410.304688 259.386719 409.25 259.386719 M 198.558594 272.5 C 193.390625 272.707031 188.179688 275.050781 185.101562 279.316406 C 182.453125 282.886719 181.394531 287.429688 181.417969 291.824219 C 181.335938 295.964844 182.171875 300.222656 184.378906 303.769531 C 186.171875 306.671875 188.914062 308.949219 192.066406 310.226562 C 195.867188 311.769531 200.128906 312.046875 204.132812 311.21875 C 207.847656 310.457031 211.359375 308.507812 213.78125 305.554688 C 215.960938 302.941406 217.226562 299.65625 217.742188 296.3125 C 218.300781 292.425781 218.152344 288.390625 217.003906 284.621094 C 215.929688 281.089844 213.75 277.875 210.71875 275.75 C 207.210938 273.257812 202.8125 272.269531 198.5625 272.496094 M 233.957031 277.746094 C 233.960938 276.308594 233.960938 274.871094 233.957031 273.4375 C 230.859375 273.4375 227.765625 273.417969 224.667969 273.445312 C 224.683594 285.832031 224.671875 298.214844 224.675781 310.597656 C 227.996094 310.613281 231.3125 310.597656 234.632812 310.605469 C 234.648438 302.386719 234.613281 294.160156 234.652344 285.941406 C 235.054688 284.734375 236.164062 283.859375 237.269531 283.285156 C 239.804688 282.078125 242.679688 281.976562 245.433594 281.949219 C 245.433594 278.878906 245.433594 275.808594 245.4375 272.738281 C 241.09375 272.335938 236.753906 274.484375 233.957031 277.746094 M 258.316406 273.746094 C 254.9375 274.828125 251.925781 277.019531 249.890625 279.9375 C 252.089844 281.222656 254.304688 282.476562 256.519531 283.730469 C 258.40625 281.390625 261.195312 279.773438 264.210938 279.535156 C 266.367188 279.347656 268.953125 279.457031 270.496094 281.210938 C 271.585938 282.464844 271.269531 284.214844 271.308594 285.738281 C 266.242188 286.335938 261.128906 287.167969 256.40625 289.179688 C 253.742188 290.335938 251.140625 291.996094 249.566406 294.511719 C 247.808594 297.335938 247.632812 300.949219 248.609375 304.078125 C 249.40625 306.65625 251.320312 308.863281 253.78125 309.964844 C 256.605469 311.28125 259.832031 311.210938 262.839844 310.730469 C 265.839844 310.226562 268.714844 309.058594 271.253906 307.386719 C 271.539062 308.457031 271.820312 309.527344 272.105469 310.601562 C 275.007812 310.601562 277.914062 310.601562 280.816406 310.601562 C 280.710938 302.015625 280.777344 293.421875 280.769531 284.832031 C 280.941406 282.300781 280.464844 279.621094 278.875 277.585938 C 276.8125 274.828125 273.390625 273.523438 270.097656 272.996094 C 266.183594 272.433594 262.109375 272.535156 258.316406 273.746094 M 306.789062 272.949219 C 303.3125 273.667969 300.265625 275.625 297.425781 277.675781 C 297.136719 276.222656 296.808594 274.773438 296.550781 273.320312 C 293.839844 273.6875 291.125 274.0625 288.414062 274.445312 C 288.40625 286.480469 288.414062 298.511719 288.414062 310.546875 C 291.65625 310.546875 294.898438 310.546875 298.144531 310.546875 L 298.144531 283.9375 C 300.441406 282.023438 303.074219 280.28125 306.105469 279.902344 C 307.632812 279.734375 309.425781 279.824219 310.539062 281.03125 C 311.640625 282.316406 311.816406 284.101562 311.867188 285.730469 C 311.871094 294.003906 311.871094 302.273438 311.871094 310.546875 C 315.132812 310.550781 318.394531 310.546875 321.660156 310.546875 L 321.660156 284.148438 C 321.621094 282.382812 321.378906 280.601562 320.769531 278.941406 C 319.976562 276.703125 318.335938 274.773438 316.167969 273.789062 C 313.25 272.464844 309.894531 272.359375 306.792969 272.949219 M 332.226562 278.355469 C 329.242188 282.394531 328.195312 287.558594 328.292969 292.503906 C 328.335938 297.019531 329.335938 301.742188 332.195312 305.339844 C 334.460938 308.265625 337.996094 310.070312 341.648438 310.457031 C 344.316406 310.710938 347.164062 310.597656 349.546875 309.242188 C 351.203125 308.316406 352.367188 306.765625 353.347656 305.175781 C 353.425781 306.738281 353.371094 308.304688 353.386719 309.867188 C 353.324219 311.9375 353.019531 314.191406 351.589844 315.800781 C 350.285156 317.25 348.25 317.761719 346.363281 317.769531 C 344.378906 317.796875 342.238281 317.726562 340.523438 316.613281 C 339.667969 316.0625 339.226562 315.09375 338.976562 314.144531 C 335.757812 314.664062 332.539062 315.183594 329.320312 315.703125 C 329.90625 318.710938 332 321.257812 334.652344 322.703125 C 338.792969 325.003906 343.714844 325.261719 348.332031 324.816406 C 352.335938 324.414062 356.5625 323.273438 359.417969 320.261719 C 361.976562 317.558594 362.777344 313.707031 362.835938 310.09375 L 362.835938 273.324219 C 360.074219 273.339844 357.3125 273.28125 354.554688 273.355469 C 354.339844 274.722656 354.070312 276.085938 353.832031 277.453125 C 352.976562 275.679688 351.308594 274.449219 349.523438 273.722656 C 347.171875 272.761719 344.582031 272.535156 342.058594 272.679688 C 338.144531 272.976562 334.515625 275.195312 332.226562 278.355469 M 372.933594 278.074219 C 370.246094 281.277344 369.050781 285.46875 368.75 289.578125 C 368.464844 294.066406 368.882812 298.742188 370.929688 302.8125 C 372.519531 305.980469 375.242188 308.578125 378.542969 309.886719 C 382.78125 311.597656 387.535156 311.578125 391.949219 310.644531 C 396.269531 309.699219 400.335938 307.101562 402.535156 303.1875 C 400.136719 301.867188 397.742188 300.535156 395.351562 299.195312 C 394.28125 300.734375 392.972656 302.175781 391.28125 303.027344 C 389.375 303.996094 387.152344 304.121094 385.070312 303.820312 C 383.054688 303.527344 381.148438 302.417969 380.050781 300.679688 C 378.691406 298.546875 378.320312 295.941406 378.304688 293.453125 C 386.496094 293.460938 394.695312 293.453125 402.894531 293.457031 C 403.171875 290.183594 402.859375 286.851562 401.917969 283.707031 C 400.882812 280.292969 398.78125 277.136719 395.75 275.207031 C 392.03125 272.800781 387.386719 272.28125 383.070312 272.785156 C 379.207031 273.253906 375.433594 275.035156 372.933594 278.074219 Z M 372.933594 278.074219 "/>
<path style=" stroke:none;fill-rule:nonzero;fill:rgb(100%,40.000001%,0%);fill-opacity:1;" d="M 380.578125 281.460938 C 381.761719 280.121094 383.527344 279.398438 385.292969 279.292969 C 387.539062 279.125 389.992188 279.753906 391.527344 281.5 C 392.886719 283.011719 393.339844 285.101562 393.390625 287.082031 C 388.410156 287.082031 383.429688 287.089844 378.453125 287.078125 C 378.613281 285.066406 379.199219 282.988281 380.578125 281.460938 Z M 344.160156 279.714844 C 346.449219 279.292969 348.945312 280.027344 350.570312 281.726562 C 352.476562 283.679688 353.253906 286.457031 353.417969 289.125 C 353.496094 291.078125 353.414062 293.046875 353.101562 294.980469 C 352.753906 297.019531 352.070312 299.101562 350.601562 300.609375 C 349.261719 301.972656 347.316406 302.59375 345.4375 302.546875 C 343.6875 302.601562 341.84375 302.046875 340.632812 300.726562 C 339.003906 299.046875 338.460938 296.648438 338.199219 294.394531 C 337.984375 292.097656 337.921875 289.777344 338.222656 287.488281 C 338.507812 285.472656 339.132812 283.429688 340.476562 281.859375 C 341.417969 280.742188 342.71875 279.984375 344.160156 279.714844 Z M 198.160156 280.890625 C 200.535156 280.539062 203.191406 280.929688 205.050781 282.5625 C 206.796875 284.066406 207.648438 286.339844 208.03125 288.5625 C 208.433594 291.058594 208.414062 293.632812 207.929688 296.113281 C 207.484375 298.292969 206.515625 300.492188 204.707031 301.867188 C 202.6875 303.371094 199.980469 303.636719 197.574219 303.140625 C 195.609375 302.742188 193.859375 301.460938 192.855469 299.722656 C 191.410156 297.207031 191.089844 294.214844 191.152344 291.359375 C 191.246094 288.792969 191.695312 286.121094 193.160156 283.957031 C 194.292969 282.273438 196.15625 281.15625 198.160156 280.890625 Z M 262.292969 293.726562 C 265.070312 292.578125 268.058594 292.066406 271.023438 291.691406 C 271.035156 294.585938 271.019531 297.484375 271.035156 300.382812 C 268.554688 302.609375 265.394531 304.359375 261.984375 304.296875 C 260.839844 304.328125 259.707031 303.839844 258.929688 303.007812 C 257.445312 301.339844 257.230469 298.695312 258.378906 296.785156 C 259.238281 295.308594 260.769531 294.390625 262.292969 293.726562 Z M 262.292969 293.726562 "/>
<path style=" stroke:none;fill-rule:nonzero;fill:rgb(99.215686%,85.09804%,74.117649%);fill-opacity:1;" d="M 432.757812 66.667969 L 432.980469 66.667969 L 432.980469 333.332031 L 167.019531 333.332031 L 167.019531 333.109375 C 255.59375 333.105469 344.175781 333.113281 432.753906 333.105469 C 432.761719 244.292969 432.753906 155.480469 432.757812 66.667969 Z M 432.757812 66.667969 "/>
<path style=" stroke:none;fill-rule:nonzero;fill:rgb(100%,100%,100%);fill-opacity:1;" d="M 397.101562 259.386719 C 400.34375 259.398438 403.582031 259.386719 406.824219 259.390625 C 406.820312 259.957031 406.820312 260.519531 406.824219 261.082031 C 405.550781 261.078125 404.273438 261.082031 403.003906 261.082031 C 402.996094 264.617188 403 268.152344 403 271.6875 C 402.304688 271.683594 401.613281 271.683594 400.917969 271.691406 C 400.914062 268.152344 400.921875 264.617188 400.914062 261.082031 C 399.644531 261.082031 398.367188 261.078125 397.097656 261.085938 C 397.089844 260.519531 397.089844 259.953125 397.101562 259.386719 Z M 409.25 259.386719 C 410.304688 259.386719 411.367188 259.390625 412.425781 259.386719 C 413.621094 262.46875 414.839844 265.539062 416.035156 268.617188 C 417.222656 265.542969 418.417969 262.472656 419.589844 259.394531 C 420.640625 259.386719 421.691406 259.386719 422.746094 259.394531 C 422.738281 263.492188 422.761719 267.59375 422.734375 271.691406 C 422.042969 271.683594 421.355469 271.683594 420.664062 271.6875 C 420.65625 268.3125 420.675781 264.941406 420.652344 261.570312 C 419.277344 264.921875 418 268.3125 416.664062 271.679688 C 416.210938 271.679688 415.765625 271.679688 415.320312 271.679688 C 413.992188 268.324219 412.738281 264.941406 411.347656 261.613281 C 411.300781 264.972656 411.339844 268.328125 411.324219 271.6875 L 409.25 271.6875 C 409.242188 267.585938 409.242188 263.488281 409.25 259.386719 Z M 198.5625 272.496094 C 202.8125 272.269531 207.210938 273.257812 210.71875 275.75 C 213.75 277.875 215.929688 281.089844 217.003906 284.621094 C 218.152344 288.390625 218.300781 292.425781 217.742188 296.3125 C 217.226562 299.65625 215.960938 302.941406 213.78125 305.554688 C 211.359375 308.507812 207.84375 310.457031 204.132812 311.21875 C 200.128906 312.046875 195.867188 311.769531 192.066406 310.226562 C 188.914062 308.949219 186.171875 306.671875 184.378906 303.769531 C 182.171875 300.222656 181.335938 295.964844 181.417969 291.824219 C 181.394531 287.429688 182.453125 282.890625 185.101562 279.316406 C 188.179688 275.050781 193.390625 272.707031 198.5625 272.5 M 198.160156 280.890625 C 196.15625 281.15625 194.292969 282.273438 193.160156 283.957031 C 191.695312 286.121094 191.246094 288.792969 191.152344 291.359375 C 191.089844 294.214844 191.410156 297.207031 192.855469 299.722656 C 193.859375 301.460938 195.609375 302.742188 197.574219 303.140625 C 199.980469 303.636719 202.6875 303.371094 204.707031 301.867188 C 206.515625 300.492188 207.484375 298.292969 207.929688 296.113281 C 208.417969 293.632812 208.433594 291.058594 208.027344 288.5625 C 207.648438 286.339844 206.796875 284.066406 205.050781 282.5625 C 203.191406 280.929688 200.535156 280.539062 198.160156 280.890625 Z M 233.957031 277.746094 C 236.753906 274.484375 241.09375 272.335938 245.4375 272.738281 C 245.433594 275.808594 245.433594 278.878906 245.433594 281.949219 C 242.679688 281.976562 239.804688 282.078125 237.269531 283.285156 C 236.164062 283.859375 235.054688 284.734375 234.652344 285.941406 C 234.613281 294.160156 234.648438 302.386719 234.628906 310.605469 C 231.3125 310.597656 227.996094 310.613281 224.675781 310.597656 C 224.671875 298.214844 224.683594 285.832031 224.667969 273.449219 C 227.765625 273.417969 230.859375 273.4375 233.957031 273.4375 C 233.960938 274.871094 233.960938 276.308594 233.957031 277.746094 Z M 258.316406 273.746094 C 262.109375 272.535156 266.183594 272.433594 270.097656 272.996094 C 273.390625 273.523438 276.8125 274.828125 278.875 277.585938 C 280.464844 279.621094 280.941406 282.300781 280.769531 284.832031 C 280.777344 293.421875 280.710938 302.015625 280.816406 310.601562 C 277.914062 310.601562 275.007812 310.601562 272.105469 310.601562 C 271.820312 309.527344 271.539062 308.457031 271.257812 307.386719 C 268.714844 309.058594 265.839844 310.226562 262.839844 310.730469 C 259.832031 311.210938 256.605469 311.28125 253.78125 309.96875 C 251.320312 308.863281 249.40625 306.65625 248.609375 304.078125 C 247.632812 300.949219 247.808594 297.335938 249.566406 294.511719 C 251.140625 291.996094 253.742188 290.335938 256.40625 289.179688 C 261.128906 287.167969 266.242188 286.335938 271.308594 285.738281 C 271.269531 284.214844 271.585938 282.464844 270.496094 281.210938 C 268.953125 279.457031 266.367188 279.347656 264.210938 279.535156 C 261.195312 279.773438 258.40625 281.390625 256.519531 283.730469 C 254.304688 282.472656 252.089844 281.222656 249.890625 279.9375 C 251.925781 277.019531 254.9375 274.828125 258.316406 273.746094 M 262.292969 293.726562 C 260.769531 294.390625 259.238281 295.308594 258.378906 296.785156 C 257.230469 298.695312 257.445312 301.339844 258.929688 303.007812 C 259.707031 303.839844 260.839844 304.328125 261.984375 304.296875 C 265.394531 304.359375 268.554688 302.609375 271.03125 300.382812 C 271.019531 297.484375 271.035156 294.585938 271.027344 291.691406 C 268.0625 292.066406 265.070312 292.578125 262.292969 293.726562 Z M 306.792969 272.949219 C 309.894531 272.359375 313.25 272.464844 316.167969 273.789062 C 318.335938 274.773438 319.976562 276.703125 320.769531 278.941406 C 321.378906 280.601562 321.621094 282.382812 321.660156 284.148438 L 321.660156 310.546875 C 318.394531 310.546875 315.132812 310.550781 311.871094 310.546875 C 311.871094 302.273438 311.871094 294.003906 311.867188 285.730469 C 311.816406 284.101562 311.640625 282.316406 310.539062 281.03125 C 309.425781 279.824219 307.632812 279.734375 306.105469 279.902344 C 303.074219 280.28125 300.441406 282.023438 298.144531 283.9375 L 298.144531 310.546875 C 294.898438 310.546875 291.65625 310.546875 288.414062 310.546875 C 288.414062 298.515625 288.40625 286.480469 288.414062 274.445312 C 291.125 274.0625 293.839844 273.6875 296.550781 273.320312 C 296.808594 274.773438 297.136719 276.222656 297.425781 277.675781 C 300.265625 275.625 303.3125 273.667969 306.789062 272.949219 Z M 332.226562 278.355469 C 334.515625 275.195312 338.144531 272.976562 342.0625 272.679688 C 344.582031 272.535156 347.171875 272.761719 349.523438 273.722656 C 351.308594 274.449219 352.976562 275.679688 353.832031 277.453125 C 354.070312 276.085938 354.339844 274.722656 354.554688 273.355469 C 357.3125 273.28125 360.074219 273.339844 362.835938 273.324219 L 362.835938 310.09375 C 362.777344 313.707031 361.976562 317.558594 359.417969 320.261719 C 356.5625 323.273438 352.335938 324.414062 348.332031 324.816406 C 343.714844 325.261719 338.792969 325.003906 334.652344 322.703125 C 332 321.257812 329.90625 318.710938 329.320312 315.703125 C 332.539062 315.183594 335.757812 314.664062 338.976562 314.144531 C 339.226562 315.09375 339.667969 316.0625 340.523438 316.613281 C 342.238281 317.726562 344.378906 317.796875 346.363281 317.769531 C 348.25 317.761719 350.285156 317.25 351.589844 315.800781 C 353.019531 314.191406 353.324219 311.9375 353.386719 309.867188 C 353.371094 308.304688 353.425781 306.738281 353.347656 305.175781 C 352.367188 306.765625 351.203125 308.316406 349.546875 309.242188 C 347.164062 310.597656 344.3125 310.710938 341.648438 310.457031 C 337.996094 310.070312 334.460938 308.265625 332.195312 305.339844 C 329.335938 301.742188 328.332031 297.019531 328.292969 292.503906 C 328.195312 287.558594 329.242188 282.394531 332.226562 278.355469 M 344.160156 279.714844 C 342.71875 279.984375 341.417969 280.742188 340.476562 281.859375 C 339.132812 283.429688 338.507812 285.472656 338.222656 287.488281 C 337.921875 289.777344 337.984375 292.097656 338.199219 294.394531 C 338.460938 296.648438 339.003906 299.046875 340.632812 300.726562 C 341.84375 302.046875 343.6875 302.601562 345.4375 302.546875 C 347.316406 302.59375 349.261719 301.972656 350.601562 300.609375 C 352.070312 299.101562 352.753906 297.019531 353.101562 294.980469 C 353.414062 293.046875 353.496094 291.078125 353.417969 289.125 C 353.253906 286.457031 352.480469 283.679688 350.570312 281.726562 C 348.945312 280.027344 346.449219 279.292969 344.160156 279.714844 Z M 372.933594 278.074219 C 375.433594 275.035156 379.207031 273.253906 383.070312 272.785156 C 387.386719 272.277344 392.03125 272.800781 395.75 275.207031 C 398.78125 277.136719 400.882812 280.292969 401.917969 283.707031 C 402.855469 286.851562 403.167969 290.183594 402.890625 293.457031 C 394.695312 293.453125 386.496094 293.460938 378.304688 293.453125 C 378.320312 295.941406 378.691406 298.546875 380.050781 300.679688 C 381.148438 302.414062 383.054688 303.527344 385.070312 303.820312 C 387.152344 304.121094 389.375 303.996094 391.28125 303.027344 C 392.972656 302.175781 394.28125 300.734375 395.351562 299.195312 C 397.742188 300.535156 400.136719 301.867188 402.535156 303.1875 C 400.335938 307.101562 396.269531 309.699219 391.949219 310.644531 C 387.535156 311.578125 382.777344 311.597656 378.542969 309.886719 C 375.242188 308.578125 372.519531 305.980469 370.929688 302.8125 C 368.882812 298.742188 368.460938 294.066406 368.75 289.578125 C 369.050781 285.46875 370.246094 281.277344 372.933594 278.074219 M 380.578125 281.460938 C 379.199219 282.988281 378.613281 285.066406 378.453125 287.078125 C 383.429688 287.089844 388.410156 287.082031 393.390625 287.082031 C 393.339844 285.101562 392.886719 283.011719 391.527344 281.5 C 389.992188 279.753906 387.539062 279.125 385.292969 279.292969 C 383.527344 279.398438 381.761719 280.121094 380.578125 281.460938 Z M 380.578125 281.460938 "/>
</g>
</svg>
