<?xml version="1.0" encoding="UTF-8"?>
<svg xmlns="http://www.w3.org/2000/svg" xmlns:xlink="http://www.w3.org/1999/xlink" width="600px" height="400px" viewBox="0 0 600 400" version="1.1">
<g id="surface1">
<path style=" stroke:none;fill-rule:nonzero;fill:rgb(92.941177%,11.372549%,14.117648%);fill-opacity:1;" d="M 242.15625 239.097656 C 236.570312 239.097656 232.015625 243.847656 232.015625 249.695312 C 232.015625 255.652344 236.417969 260.3125 242.019531 260.3125 C 247.621094 260.3125 252.03125 255.667969 252.03125 249.769531 C 252.09375 246.964844 251.125 244.308594 249.289062 242.28125 C 247.421875 240.230469 244.894531 239.097656 242.15625 239.097656 "/>
<path style=" stroke:none;fill-rule:nonzero;fill:rgb(92.941177%,11.372549%,14.117648%);fill-opacity:1;" d="M 234.132812 331.964844 L 249.867188 331.964844 L 249.867188 265.617188 L 234.132812 268.332031 Z M 234.132812 331.964844 "/>
<path style=" stroke:none;fill-rule:nonzero;fill:rgb(92.941177%,11.372549%,14.117648%);fill-opacity:1;" d="M 206.355469 319.449219 C 204.808594 320.601562 201.640625 321.59375 198.1875 321.59375 C 191.863281 321.59375 189.015625 316.453125 189.125 310.464844 C 189.230469 305.515625 192.144531 299.886719 200.050781 299.886719 L 206.355469 299.886719 Z M 199.855469 264.4375 C 192.339844 264.4375 185.585938 266.683594 178.644531 270.347656 L 176.871094 271.308594 L 181.097656 281.292969 L 183.488281 280.101562 C 188.394531 277.773438 193.640625 276.207031 198.351562 276.417969 C 204.042969 276.660156 206.386719 279.429688 206.386719 285.210938 L 206.386719 288.601562 L 197.054688 288.601562 C 182.070312 288.601562 172.738281 297.011719 172.484375 310.0625 C 172.484375 322.480469 182.246094 333.164062 195.839844 333.164062 C 206.804688 333.164062 216.082031 329.402344 222.347656 322.761719 L 222.347656 287.347656 C 222.347656 270.101562 210.722656 264.4375 199.855469 264.4375 M 367.320312 277.359375 C 374.308594 277.359375 375.335938 285.394531 375.335938 290.386719 L 358.304688 290.386719 C 358.578125 283.964844 361.109375 277.359375 367.320312 277.359375 M 370.722656 321.480469 C 366.410156 321.480469 363.496094 319.972656 361.585938 317.800781 C 358.761719 314.550781 357.496094 307.902344 357.839844 300.832031 L 391.769531 300.832031 L 391.769531 299.167969 C 391.46875 275.65625 383.902344 264.953125 367.320312 264.953125 C 348.824219 264.953125 341.621094 282.972656 341.476562 299.898438 C 341.363281 310.59375 345.175781 321.390625 352.160156 327.523438 C 356.414062 331.269531 362.292969 333.332031 369.121094 333.332031 C 372.851562 333.332031 376.722656 332.765625 380.277344 331.585938 C 387.082031 329.359375 392.109375 325.5 392.109375 325.5 L 387.664062 315.832031 C 386.863281 316.46875 380.074219 321.480469 370.722656 321.480469 M 262.460938 277.511719 L 262.441406 332.019531 L 278.488281 332.019531 L 278.488281 280.707031 C 280.582031 278.546875 285.019531 276.644531 289.242188 276.472656 C 293.152344 276.304688 295.683594 277.171875 295.683594 277.171875 L 300.125 266.625 C 298.40625 265.71875 294.296875 264.617188 289.519531 264.617188 C 282.625 264.617188 272.007812 266.75 262.460938 277.511719 M 425.113281 321.519531 C 418.574219 320.988281 417.203125 317.949219 417.203125 312.878906 L 417.203125 247.234375 L 401.425781 250.085938 L 401.425781 311.792969 C 401.425781 326.414062 408.933594 332.691406 421.480469 332.691406 C 424.164062 332.691406 427.511719 332.023438 427.511719 332.023438 L 427.511719 321.554688 C 427.511719 321.554688 426.019531 321.59375 425.117188 321.519531 M 325.566406 247.328125 L 309.4375 250.074219 L 309.4375 312.085938 C 309.4375 325.96875 317.097656 332.550781 329.949219 332.550781 C 333.039062 332.550781 335.9375 331.929688 335.9375 331.929688 L 335.9375 321.613281 C 335.765625 321.597656 334.582031 321.597656 333.667969 321.558594 C 326.890625 321.3125 325.566406 317.351562 325.566406 312.789062 L 325.566406 277.898438 L 335.9375 277.898438 L 335.9375 265.648438 L 325.566406 265.648438 Z M 325.566406 247.328125 "/>
<path style=" stroke:none;fill-rule:nonzero;fill:rgb(92.941177%,11.372549%,14.117648%);fill-opacity:1;" d="M 290.597656 208.496094 C 299.277344 205.183594 306.167969 200.574219 312.808594 196.121094 L 314.617188 194.933594 C 321.652344 190.242188 328.519531 184.757812 335.582031 178.222656 C 351.210938 163.75 360.597656 149.546875 365.96875 132.214844 C 368.164062 125.164062 371.230469 111.472656 367.464844 98.609375 C 364.820312 89.425781 359.21875 81.375 351.527344 75.699219 C 350.632812 74.902344 340.910156 66.671875 322.558594 66.671875 C 305.773438 66.671875 287.386719 73.515625 267.886719 87.054688 L 267.277344 87.46875 L 267.179688 87.535156 C 266.589844 87.914062 266.011719 88.304688 265.4375 88.710938 C 264.960938 89.097656 264.460938 89.449219 263.933594 89.761719 C 259.960938 92.609375 256.175781 95.710938 252.605469 99.046875 C 244.367188 107.484375 234.972656 121.578125 235.550781 133.570312 C 235.800781 138.640625 237.804688 142.792969 241.503906 145.875 C 244.828125 148.628906 249 150.023438 253.882812 150.023438 C 263.867188 150.023438 274.8125 144.273438 282.300781 139.410156 C 282.769531 139.050781 283.242188 138.703125 283.722656 138.398438 C 285.035156 137.488281 286.328125 136.574219 287.640625 135.632812 L 288.914062 134.714844 C 299.550781 127.167969 310.570312 119.347656 322.964844 114.792969 C 326.191406 113.621094 329.007812 113.070312 331.585938 113.070312 C 332.867188 113.070312 334.125 113.183594 335.320312 113.492188 C 338.96875 114.300781 342.011719 116.804688 343.503906 120.234375 C 346.367188 126.460938 345.683594 136.242188 341.773438 145.210938 C 336.433594 157.40625 327.261719 169.453125 314.53125 180.976562 C 308.03125 186.851562 302.042969 191.390625 296.707031 194.449219 L 296.226562 194.722656 C 293.734375 196.179688 290.929688 197.820312 287.960938 198.988281 L 287.558594 199.148438 C 286.683594 199.5 285.929688 199.820312 285.234375 200.054688 C 272.785156 203.582031 280.367188 191.964844 280.367188 191.964844 C 283.109375 188.519531 285.90625 185.738281 288.875 182.84375 C 290.554688 181.164062 292.292969 179.441406 294.050781 177.574219 L 294.4375 177.148438 C 296.609375 174.84375 299.59375 171.699219 299.421875 167.183594 C 299.15625 161.164062 293.417969 157.40625 287.988281 157.246094 L 287.601562 157.246094 C 282.398438 157.246094 277.46875 160.492188 274.242188 163.191406 C 270.734375 166.28125 267.71875 169.886719 265.296875 173.886719 C 261.988281 179.453125 255.007812 193.660156 261.8125 205.003906 C 264.53125 209.535156 269.066406 211.839844 275.300781 211.839844 C 279.648438 211.839844 284.789062 210.722656 290.597656 208.496094 "/>
</g>
</svg>
