<svg width="124" height="30" xmlns="http://www.w3.org/2000/svg">

 <g>
  <title>Layer 1</title>
  <path id="svg_1" fill="#253B80" d="m46.21091,6.749l-6.839,0a0.95,0.95 0 0 0 -0.939,0.802l-2.766,17.537a0.57,0.57 0 0 0 0.564,0.658l3.265,0a0.95,0.95 0 0 0 0.939,-0.803l0.746,-4.73a0.95,0.95 0 0 1 0.938,-0.803l2.165,0c4.505,0 7.105,-2.18 7.784,-6.5c0.306,-1.89 0.013,-3.375 -0.872,-4.415c-0.972,-1.142 -2.696,-1.746 -4.985,-1.746zm0.789,6.405c-0.374,2.454 -2.249,2.454 -4.062,2.454l-1.032,0l0.724,-4.583a0.57,0.57 0 0 1 0.563,-0.481l0.473,0c1.235,0 2.4,0 3.002,0.704c0.359,0.42 0.469,1.044 0.332,1.906zm19.654,-0.079l-3.275,0a0.57,0.57 0 0 0 -0.563,0.481l-0.145,0.916l-0.229,-0.332c-0.709,-1.029 -2.29,-1.373 -3.868,-1.373c-3.619,0 -6.71,2.741 -7.312,6.586c-0.313,1.918 0.132,3.752 1.22,5.031c0.998,1.176 2.426,1.666 4.125,1.666c2.916,0 4.533,-1.875 4.533,-1.875l-0.146,0.91a0.57,0.57 0 0 0 0.562,0.66l2.95,0a0.95,0.95 0 0 0 0.939,-0.803l1.77,-11.209a0.568,0.568 0 0 0 -0.561,-0.658zm-4.565,6.374c-0.316,1.871 -1.801,3.127 -3.695,3.127c-0.951,0 -1.711,-0.305 -2.199,-0.883c-0.484,-0.574 -0.668,-1.391 -0.514,-2.301c0.295,-1.855 1.805,-3.152 3.67,-3.152c0.93,0 1.686,0.309 2.184,0.892c0.499,0.589 0.697,1.411 0.554,2.317zm22.007,-6.374l-3.291,0a0.954,0.954 0 0 0 -0.787,0.417l-4.539,6.686l-1.924,-6.425a0.953,0.953 0 0 0 -0.912,-0.678l-3.234,0a0.57,0.57 0 0 0 -0.541,0.754l3.625,10.638l-3.408,4.811a0.57,0.57 0 0 0 0.465,0.9l3.287,0a0.949,0.949 0 0 0 0.781,-0.408l10.946,-15.8a0.57,0.57 0 0 0 -0.468,-0.895z"/>
  <path id="svg_2" fill="#179BD7" d="m94.99191,6.749l-6.84,0a0.95,0.95 0 0 0 -0.938,0.802l-2.766,17.537a0.569,0.569 0 0 0 0.562,0.658l3.51,0a0.665,0.665 0 0 0 0.656,-0.562l0.785,-4.971a0.95,0.95 0 0 1 0.938,-0.803l2.164,0c4.506,0 7.105,-2.18 7.785,-6.5c0.307,-1.89 0.012,-3.375 -0.873,-4.415c-0.971,-1.142 -2.694,-1.746 -4.983,-1.746zm0.789,6.405c-0.373,2.454 -2.248,2.454 -4.062,2.454l-1.031,0l0.725,-4.583a0.568,0.568 0 0 1 0.562,-0.481l0.473,0c1.234,0 2.4,0 3.002,0.704c0.359,0.42 0.468,1.044 0.331,1.906zm19.653,-0.079l-3.273,0a0.567,0.567 0 0 0 -0.562,0.481l-0.145,0.916l-0.23,-0.332c-0.709,-1.029 -2.289,-1.373 -3.867,-1.373c-3.619,0 -6.709,2.741 -7.311,6.586c-0.312,1.918 0.131,3.752 1.219,5.031c1,1.176 2.426,1.666 4.125,1.666c2.916,0 4.533,-1.875 4.533,-1.875l-0.146,0.91a0.57,0.57 0 0 0 0.564,0.66l2.949,0a0.95,0.95 0 0 0 0.938,-0.803l1.771,-11.209a0.571,0.571 0 0 0 -0.565,-0.658zm-4.565,6.374c-0.314,1.871 -1.801,3.127 -3.695,3.127c-0.949,0 -1.711,-0.305 -2.199,-0.883c-0.484,-0.574 -0.666,-1.391 -0.514,-2.301c0.297,-1.855 1.805,-3.152 3.67,-3.152c0.93,0 1.686,0.309 2.184,0.892c0.501,0.589 0.699,1.411 0.554,2.317zm8.426,-12.219l-2.807,17.858a0.569,0.569 0 0 0 0.562,0.658l2.822,0c0.469,0 0.867,-0.34 0.939,-0.803l2.768,-17.536a0.57,0.57 0 0 0 -0.562,-0.659l-3.16,0a0.571,0.571 0 0 0 -0.562,0.482z"/>
  <path id="svg_3" fill="#253B80" d="m7.26591,29.154l0.523,-3.322l-1.165,-0.027l-5.563,0l3.866,-24.513a0.316,0.316 0 0 1 0.314,-0.268l9.38,0c3.114,0 5.263,0.648 6.385,1.927c0.526,0.6 0.861,1.227 1.023,1.917c0.17,0.724 0.173,1.589 0.007,2.644l-0.012,0.077l0,0.676l0.526,0.298a3.69,3.69 0 0 1 1.065,0.812c0.45,0.513 0.741,1.165 0.864,1.938c0.127,0.795 0.085,1.741 -0.123,2.812c-0.24,1.232 -0.628,2.305 -1.152,3.183a6.547,6.547 0 0 1 -1.825,2c-0.696,0.494 -1.523,0.869 -2.458,1.109c-0.906,0.236 -1.939,0.355 -3.072,0.355l-0.73,0c-0.522,0 -1.029,0.188 -1.427,0.525a2.21,2.21 0 0 0 -0.744,1.328l-0.055,0.299l-0.924,5.855l-0.042,0.215c-0.011,0.068 -0.03,0.102 -0.058,0.125a0.155,0.155 0 0 1 -0.096,0.035l-4.507,0z"/>
  <path id="svg_4" fill="#179BD7" d="m23.04791,7.667c-0.028,0.179 -0.06,0.362 -0.096,0.55c-1.237,6.351 -5.469,8.545 -10.874,8.545l-2.752,0c-0.661,0 -1.218,0.48 -1.321,1.132l-1.409,8.936l-0.399,2.533a0.704,0.704 0 0 0 0.695,0.814l4.881,0c0.578,0 1.069,-0.42 1.16,-0.99l0.048,-0.248l0.919,-5.832l0.059,-0.32c0.09,-0.572 0.582,-0.992 1.16,-0.992l0.73,0c4.729,0 8.431,-1.92 9.513,-7.476c0.452,-2.321 0.218,-4.259 -0.978,-5.622a4.667,4.667 0 0 0 -1.336,-1.03z"/>
  <path id="svg_5" fill="#222D65" d="m21.75391,7.151a9.757,9.757 0 0 0 -1.203,-0.267a15.284,15.284 0 0 0 -2.426,-0.177l-7.352,0a1.172,1.172 0 0 0 -1.159,0.992l-1.564,9.906l-0.045,0.289a1.336,1.336 0 0 1 1.321,-1.132l2.752,0c5.405,0 9.637,-2.195 10.874,-8.545c0.037,-0.188 0.068,-0.371 0.096,-0.55a6.594,6.594 0 0 0 -1.017,-0.429a9.045,9.045 0 0 0 -0.277,-0.087z"/>
  <path id="svg_6" fill="#253B80" d="m9.61391,7.699a1.169,1.169 0 0 1 1.159,-0.991l7.352,0c0.871,0 1.684,0.057 2.426,0.177a9.757,9.757 0 0 1 1.481,0.353c0.365,0.121 0.704,0.264 1.017,0.429c0.368,-2.347 -0.003,-3.945 -1.272,-5.392c-1.399,-1.593 -3.924,-2.275 -7.155,-2.275l-9.38,0c-0.66,0 -1.223,0.48 -1.325,1.133l-3.907,24.765a0.806,0.806 0 0 0 0.795,0.932l5.791,0l1.454,-9.225l1.564,-9.906z"/>
 </g>
</svg>