<?xml version="1.0" encoding="UTF-8"?>
<svg xmlns="http://www.w3.org/2000/svg" xmlns:xlink="http://www.w3.org/1999/xlink" width="600px" height="400px" viewBox="0 0 600 400" version="1.1">
<g id="surface1">
<path style=" stroke:none;fill-rule:nonzero;fill:rgb(100%,37.254903%,0%);fill-opacity:1;" d="M 235.855469 95.175781 L 364.199219 95.175781 L 364.199219 304.800781 L 235.855469 304.800781 Z M 235.855469 95.175781 "/>
<path style=" stroke:none;fill-rule:nonzero;fill:rgb(92.156863%,0%,10.588235%);fill-opacity:1;" d="M 249.074219 200.007812 C 249.042969 159.109375 267.816406 120.464844 299.992188 95.214844 C 245.332031 52.257812 166.84375 58.515625 119.683594 109.585938 C 72.519531 160.65625 72.519531 239.394531 119.683594 290.464844 C 166.84375 341.535156 245.332031 347.792969 299.992188 304.839844 C 267.808594 279.578125 249.03125 240.917969 249.074219 200.007812 Z M 249.074219 200.007812 "/>
<path style=" stroke:none;fill-rule:nonzero;fill:rgb(96.862745%,61.960787%,10.588235%);fill-opacity:1;" d="M 502.949219 282.621094 L 502.949219 278.324219 L 504.800781 278.324219 L 504.800781 277.4375 L 500.394531 277.4375 L 500.394531 278.324219 L 502.136719 278.324219 L 502.136719 282.621094 Z M 511.503906 282.621094 L 511.503906 277.4375 L 510.171875 277.4375 L 508.617188 281.140625 L 507.058594 277.4375 L 505.726562 277.4375 L 505.726562 282.621094 L 506.691406 282.621094 L 506.691406 278.695312 L 508.136719 282.066406 L 509.132812 282.066406 L 510.578125 278.695312 L 510.578125 282.621094 Z M 511.503906 282.621094 "/>
<path style=" stroke:none;fill-rule:nonzero;fill:rgb(96.862745%,61.960787%,10.588235%);fill-opacity:1;" d="M 515.6875 200.007812 C 515.6875 251.046875 486.542969 297.605469 440.636719 319.910156 C 394.726562 342.214844 340.113281 336.347656 299.988281 304.800781 C 332.148438 279.527344 350.925781 240.890625 350.925781 199.988281 C 350.925781 159.085938 332.148438 120.449219 299.988281 95.175781 C 340.113281 63.632812 394.726562 57.765625 440.636719 80.070312 C 486.542969 102.371094 515.6875 148.929688 515.6875 199.972656 Z M 515.6875 200.007812 "/>
</g>
</svg>
